<?xml version="1.0" encoding="utf-8"?>
<!-- Generator: Adobe Illustrator 14.0.0, SVG Export Plug-In . SVG Version: 6.00 Build 43363)  -->
<!DOCTYPE svg PUBLIC "-//W3C//DTD SVG 1.1//EN" "http://www.w3.org/Graphics/SVG/1.1/DTD/svg11.dtd">
<svg version="1.1" id="Layer_1" xmlns="http://www.w3.org/2000/svg" xmlns:xlink="http://www.w3.org/1999/xlink" x="0px" y="0px"
	  viewBox="0 0 40 40" enable-background="new 0 0 40 40" xml:space="preserve">
<g>
	<g>
		<path d="M32.658,34.5H7.343c-0.467,0-0.844-0.376-0.844-0.844v-2.511c0-2.047,1.282-3.879,3.192-4.56l6.09-2.182v-3.086h1.688
			v3.681c0,0.356-0.224,0.675-0.56,0.795l-6.65,2.381c-1.239,0.44-2.071,1.635-2.071,2.971v1.668h23.627v-1.668
			c0-1.336-0.833-2.528-2.07-2.971l-6.652-2.383c-0.336-0.12-0.56-0.438-0.56-0.793v-3.895h1.688v3.3l6.093,2.182
			c1.906,0.681,3.188,2.513,3.188,4.56v2.511C33.501,34.124,33.124,34.5,32.658,34.5z"/>
		<path d="M19.833,23.176c-4.138,0-7.504-3.964-7.504-8.838S15.695,5.5,19.833,5.5c4.139,0,7.506,3.964,7.506,8.838
			S23.972,23.176,19.833,23.176z M19.833,7.188c-3.206,0-5.817,3.207-5.817,7.149c0,3.944,2.611,7.151,5.817,7.151
			c3.209,0,5.817-3.207,5.817-7.151C25.65,10.396,23.042,7.188,19.833,7.188z"/>
		<path d="M24.679,14.639c-1.555,0-2.813-0.675-3.887-2.095c-1.193,1.15-3.158,1.973-4.955,1.973c-1.092,0-2.035-0.229-2.971-0.719
			l0.784-1.493c0.691,0.362,1.367,0.522,2.187,0.522c1.657,0,3.691-1.008,4.269-2.117c0.144-0.272,0.424-0.447,0.732-0.453
			c0.318-0.017,0.595,0.157,0.749,0.426c1.107,1.937,2.212,2.517,4.084,2.16l0.714-0.068l0.153,1.681l-0.632,0.058
			C25.478,14.595,25.069,14.639,24.679,14.639z"/>
	</g>
</g>
</svg>
